<svg xmlns="http://www.w3.org/2000/svg" viewBox="0 0 621.38 591.94"><defs><style>.cls-1{fill:#ffa000;}.cls-2{fill:#787878;}.cls-3{fill:#b4b4b4;}.cls-4{fill:#a0a0a0;}</style></defs><g id="Layer_2" data-name="Layer 2"><g id="svg2848"><path class="cls-1" d="M261.23,291q-11.39,0-16.42-2T238,284.14a10.53,10.53,0,0,1-1.63-6.17,19.35,19.35,0,0,0-.65-6.18,8.31,8.31,0,0,0-4.22-4.88Q228.07,265,219,265h-45.5q-9.75,0-15.11.49c-3.57.32-6.17,1.3-7.8,2.92S148,272.55,147.8,276s-.33,8.45-.33,15,.11,11.54.33,15.11,1.13,6.18,2.76,7.8,4.23,2.55,7.8,2.76,8.61.33,15.11.33h42.26q27.93,0,43.71,1.62t23.4,9.26q7.64,7.65,9.26,23.41T293.72,395q0,27.94-1.62,43.71t-9.26,23.4q-7.65,7.65-23.4,9.26T215.73,473H173.47q-19.5,0-34.12-.65T115,468.09a27.58,27.58,0,0,1-14.62-11.53q-4.87-8-4.88-22.59,0-13.32.82-21.13t3.57-11.7a12.68,12.68,0,0,1,8-5A66.85,66.85,0,0,1,121.47,395q11.37,0,16.42,1.95c3.35,1.3,5.63,2.92,6.82,4.87a13,13,0,0,1,1.95,6.18,19.63,19.63,0,0,0,1.3,6.17q1.14,2.92,5.2,4.88T167,421h13q14.61,0,22.58-.33t11.54-2.76c2.38-1.63,3.79-4.22,4.22-7.8A134.5,134.5,0,0,0,219,395a130.09,130.09,0,0,0-.65-15c-.43-3.47-1.84-6-4.22-7.64s-6.23-2.6-11.54-2.92S189.72,369,180,369h-6.51q-27,0-42.41-2.11t-23.4-10.08q-8-8-10.08-23.4T95.47,291q0-27.95,1.63-43.72t9.26-23.4q7.64-7.64,23.4-9.26T173.47,213h39q19.5,0,34.13.65T271,217.84a27.67,27.67,0,0,1,14.63,11.54q4.88,8,4.87,22.59a179.23,179.23,0,0,1-1,21.12q-1,7.8-3.9,11.7a13.75,13.75,0,0,1-8.78,5A84.86,84.86,0,0,1,261.23,291Z"/><path class="cls-2" d="M141.82,43.35a294.19,294.19,0,0,0-78,69.14,268.31,268.31,0,0,0,34.91-4.68A319.13,319.13,0,0,1,141.82,43.35Z"/><path class="cls-3" d="M242.71,27.53A267.39,267.39,0,0,0,264,1.7a294,294,0,0,0-95.56,27.23A319.21,319.21,0,0,1,242.71,27.53Z"/><path class="cls-2" d="M169.36,82.92,155.49,57.33a298.84,298.84,0,0,0-31.13,44A272.46,272.46,0,0,0,169.36,82.92Z"/><path class="cls-4" d="M186.59,73.3a270.52,270.52,0,0,0,37.28-27.49,299.69,299.69,0,0,0-51,2.18Z"/><path class="cls-3" d="M424.68,29.43A297.59,297.59,0,0,0,289,.08a290,290,0,0,1-22.72,30.68A318.76,318.76,0,0,1,393.36,82.94,424.15,424.15,0,0,0,424.68,29.43Z"/><path class="cls-2" d="M64.53,265.18A318.67,318.67,0,0,1,88.7,129.63a289.36,289.36,0,0,1-39.65,3.19A297.47,297.47,0,0,0,1.86,263.3,423.76,423.76,0,0,0,64.53,265.18Z"/><path class="cls-4" d="M281.31,189.68c1.22.45,2.41.94,3.59,1.45a420.25,420.25,0,0,0,97-92.28A298.84,298.84,0,0,0,250.26,48.06,288.67,288.67,0,0,1,196,90.6l50.38,93,1.59.07C260.92,184.23,271.83,186.2,281.31,189.68Z"/><path class="cls-2" d="M173.47,183h39c3.84,0,7.54,0,11.13.06l-44.84-82.76a289.83,289.83,0,0,1-66.84,24.85,300.06,300.06,0,0,0-23.56,74.57c9.76-8.29,22.61-13.31,38.31-14.94C138.34,183.55,153.64,183,173.47,183Z"/><path class="cls-3" d="M513.74,199.56a584.21,584.21,0,0,0,36.85-54.48A294,294,0,0,0,442.14,38.63,443.79,443.79,0,0,1,409.19,94.7a311.92,311.92,0,0,1,77,89.6c1.94.35,3.78.76,5.53,1.25A43.44,43.44,0,0,1,513.74,199.56Z"/><path class="cls-2" d="M75.4,383.78A41.55,41.55,0,0,1,83.69,375c-8.41-9.67-13.73-22.29-15.83-37.57-1.61-11.74-2.39-26.94-2.39-46.5,0-2.08,0-4.1,0-6.09A441.47,441.47,0,0,1,.3,282.93,294.18,294.18,0,0,0,32.83,431.37q16.31.36,32.65-.17c.06-8.75.37-15.82,1-21.5C67.54,399.22,70.47,390.73,75.4,383.78Z"/><path class="cls-4" d="M311.18,213.71c.08.12.14.25.21.36a43.79,43.79,0,0,1,5.54-11.49c4-5.82,11.46-13.47,24.67-17.09,6.33-1.72,13.64-2.52,23-2.52s16.81.82,23.07,2.58a42.94,42.94,0,0,1,24.29,17,44,44,0,0,1,4.49,8.49,42.22,42.22,0,0,1,4.45-8.45c4-5.82,11.45-13.47,24.67-17.09a76.67,76.67,0,0,1,16.82-2.39,293.28,293.28,0,0,0-64.81-72.52,439.86,439.86,0,0,1-95.11,92.28A55.9,55.9,0,0,1,311.18,213.71Z"/><path class="cls-3" d="M569.54,183q-3.76-9.08-8.17-18-6.64,10.7-13.78,21.11c.66-.21,1.32-.41,2-.6A81.59,81.59,0,0,1,569.54,183Z"/><path class="cls-2" d="M138,502.29c-13-.58-23.9-2.55-33.39-6a57.69,57.69,0,0,1-29.86-24,61.31,61.31,0,0,1-7.88-21.37q-11.44.39-22.88.36A294.32,294.32,0,0,0,165.41,561.51a726.54,726.54,0,0,0,90.07-21.17A316.22,316.22,0,0,1,190.36,503H173.47C160,503,148.07,502.74,138,502.29Z"/><path class="cls-2" d="M306.85,482c-.27-.26-.53-.55-.79-.82-.65.73-1.33,1.45-2,2.14-10.05,10.06-24,16.09-41.54,17.88-9.66,1-21.94,1.58-37.28,1.74a298.12,298.12,0,0,0,59.69,27.78,729.34,729.34,0,0,0,71-29.16q-4.51-.42-8.47-1C330.52,498.27,316.87,492,306.85,482Z"/><path class="cls-3" d="M450,548.69A294.66,294.66,0,0,0,507.56,503H482.91A320.72,320.72,0,0,1,450,548.69Z"/><path class="cls-2" d="M285.42,551.32a746.83,746.83,0,0,1-87.25,23.93,295.25,295.25,0,0,0,225.58-12.34A320.18,320.18,0,0,1,285.42,551.32Z"/><path class="cls-4" d="M436.47,534.49A299.37,299.37,0,0,0,460,503H419.39Z"/><path class="cls-2" d="M317.4,539.68a300,300,0,0,0,101.75,4.26L397,503h0A758.92,758.92,0,0,1,317.4,539.68Z"/><path class="cls-1" d="M393.88,473q-27,0-42.41-2.11t-23.4-10.08q-8-8-10.07-23.4T315.88,395v-45.5a43.77,43.77,0,0,1,1.63-13.17,28.19,28.19,0,0,1,4.22-8.45,63.94,63.94,0,0,1,5.53-6.33,48.87,48.87,0,0,0,5.53-6.67,32,32,0,0,0,4.22-9.42A53.94,53.94,0,0,0,338.63,291V245.46c0-6.49.11-11.86.33-16.08s1.13-7.53,2.76-9.91,4.23-4.06,7.8-5,8.61-1.46,15.11-1.46,11.49.48,14.95,1.46a13.16,13.16,0,0,1,7.64,5q2.44,3.57,2.93,9.91c.32,4.22.48,9.59.48,16.08V382q0,13.32.33,21.12c.21,5.2,1.14,9.1,2.76,11.7a11.52,11.52,0,0,0,7.8,5A76.92,76.92,0,0,0,416.63,421a74.29,74.29,0,0,0,14.95-1.14,11.39,11.39,0,0,0,7.64-5q2.44-3.9,2.93-11.7t.49-21.12V245.79q0-9.75.32-16.25t2.76-10.07c1.63-2.38,4.22-4.06,7.8-5s8.61-1.46,15.11-1.46,11.49.48,14.95,1.46a13.13,13.13,0,0,1,7.64,5q2.44,3.57,2.92,9.91c.33,4.22.49,9.59.49,16.08V382q0,13.32.33,21.12c.21,5.2,1.14,9.1,2.76,11.7a11.52,11.52,0,0,0,7.8,5A77,77,0,0,0,520.63,421a74.47,74.47,0,0,0,15-1.14,11.39,11.39,0,0,0,7.63-5q2.44-3.9,2.93-11.7t.49-21.12V245.46c0-6.49.1-11.86.32-16.08s1.14-7.53,2.76-9.91,4.23-4.06,7.8-5,8.61-1.46,15.12-1.46,11.47.48,14.94,1.46a13.13,13.13,0,0,1,7.64,5q2.44,3.57,2.93,9.91c.32,4.22.48,9.59.48,16.08V291a53.06,53.06,0,0,0,1.63,14.62,31.66,31.66,0,0,0,4.22,9.26,48.87,48.87,0,0,0,5.53,6.67,63.94,63.94,0,0,1,5.53,6.33,28.42,28.42,0,0,1,4.22,8.45,44.13,44.13,0,0,1,1.62,13.17V395q0,27-2.11,42.41t-10.07,23.4q-8,8-23.56,10.08T543.38,473Z"/></g></g></svg>