<svg xmlns="http://www.w3.org/2000/svg" viewBox="0 0 603.49 591.94"><defs><style>.cls-1{fill:#ffa000;}.cls-2{fill:#787878;}.cls-3{fill:#b4b4b4;}.cls-4{fill:#a0a0a0;}</style></defs><g id="Layer_2" data-name="Layer 2"><g id="svg2848"><path class="cls-1" d="M298.74,319c-6.43,0-11.05-.55-13.89-1.65s-4.77-2.48-5.78-4.13A8.88,8.88,0,0,1,277.7,308a16.68,16.68,0,0,0-.55-5.23,7,7,0,0,0-3.58-4.12c-1.92-1.1-5.46-1.65-10.58-1.65h-38.5q-8.27,0-12.79.41c-3,.27-5.23,1.1-6.6,2.47s-2.16,3.54-2.34,6.47-.27,7.15-.27,12.65.09,9.76.27,12.79,1,5.22,2.34,6.59,3.57,2.16,6.6,2.34,7.28.28,12.79.28h35.75q23.64,0,37,1.37t19.8,7.84q6.47,6.46,7.84,19.8t1.37,37q0,23.65-1.37,37T317,463.76q-6.47,6.47-19.8,7.83t-37,1.38H224.49q-16.5,0-28.88-.55T175,468.84a23.28,23.28,0,0,1-12.38-9.76q-4.12-6.74-4.13-19.11,0-11.28.69-17.88t3-9.9a10.66,10.66,0,0,1,6.74-4.26,56,56,0,0,1,11.54-1q9.63,0,13.89,1.65t5.78,4.12A11.16,11.16,0,0,1,201.8,418a16.32,16.32,0,0,0,1.1,5.22c.64,1.65,2.1,3,4.4,4.13S213.49,429,219,429h11q12.36,0,19.11-.28t9.76-2.33q3-2.07,3.57-6.6A112.1,112.1,0,0,0,263,407a108.15,108.15,0,0,0-.56-12.65,8.72,8.72,0,0,0-3.57-6.47q-3-2.06-9.76-2.47T230,385h-5.5q-22.83,0-35.89-1.79t-19.8-8.53q-6.75-6.73-8.53-19.79T158.48,319q0-23.66,1.38-37t7.84-19.8q6.45-6.47,19.8-7.84t37-1.37h33q16.5,0,28.88.55T307,257.09a23.37,23.37,0,0,1,12.38,9.76q4.13,6.75,4.13,19.12a151.23,151.23,0,0,1-.83,17.87q-.82,6.6-3.3,9.9a11.58,11.58,0,0,1-7.43,4.26A71,71,0,0,1,298.74,319Z"/><path class="cls-2" d="M141.82,43.35a294.19,294.19,0,0,0-78,69.14,268.31,268.31,0,0,0,34.91-4.68A319.13,319.13,0,0,1,141.82,43.35Z"/><path class="cls-3" d="M242.71,27.53A267.39,267.39,0,0,0,264,1.7a294,294,0,0,0-95.56,27.23A319.21,319.21,0,0,1,242.71,27.53Z"/><path class="cls-2" d="M169.36,82.92,155.49,57.33a299.37,299.37,0,0,0-31.13,44A272.46,272.46,0,0,0,169.36,82.92Z"/><path class="cls-4" d="M172.87,48,186.59,73.3a270.52,270.52,0,0,0,37.28-27.49A299.69,299.69,0,0,0,172.87,48Z"/><path class="cls-3" d="M424.68,29.43A297.72,297.72,0,0,0,289,.08a290,290,0,0,1-22.72,30.68A318.76,318.76,0,0,1,393.36,82.94,424.15,424.15,0,0,0,424.68,29.43Z"/><path class="cls-2" d="M64.53,265.18A318.69,318.69,0,0,1,88.7,129.63a289.36,289.36,0,0,1-39.65,3.19A297.47,297.47,0,0,0,1.86,263.3,423.76,423.76,0,0,0,64.53,265.18Z"/><path class="cls-4" d="M381.85,98.85A298.84,298.84,0,0,0,250.26,48.06,288.67,288.67,0,0,1,196,90.6l63.3,116.82A420.75,420.75,0,0,0,381.85,98.85Z"/><path class="cls-2" d="M184.41,224.5c10-1,23.14-1.53,40.08-1.53h5.68q5.94-2.9,11.83-6L178.76,100.27a289.83,289.83,0,0,1-66.84,24.85A298.53,298.53,0,0,0,84.07,263.85a421.24,421.24,0,0,0,52.1-8.11A52.49,52.49,0,0,1,146.47,241C155.77,231.68,168.53,226.15,184.41,224.5Z"/><path class="cls-3" d="M489.86,190.9q6.43,11.88,11.77,24a586.23,586.23,0,0,0,49-69.86A294,294,0,0,0,442.14,38.63,443.79,443.79,0,0,1,409.19,94.7,312.33,312.33,0,0,1,489.86,190.9Z"/><path class="cls-2" d="M102.13,401A312.43,312.43,0,0,1,66,284.86,444.26,444.26,0,0,1,.3,282.94,294.17,294.17,0,0,0,32.83,431.37,585.76,585.76,0,0,0,118,427.11Q109.51,414.54,102.13,401Z"/><path class="cls-4" d="M317.32,228.93a54.31,54.31,0,0,1,22.86,15.71c.59-1,1.2-2.07,1.87-3.06a40.74,40.74,0,0,1,23.48-16.31c5.77-1.57,12.34-2.3,20.71-2.3s15.05.75,20.76,2.35a41,41,0,0,1,23.1,16.19,40.73,40.73,0,0,1,23.43-16.24c5.76-1.57,12.33-2.3,20.71-2.3,3.46,0,6.61.13,9.52.39q-5.08-11.66-11.25-23.06a293.78,293.78,0,0,0-74.9-89.72,440.24,440.24,0,0,1-126.13,112.5c5.85.09,11.29.25,16.21.47C299.16,224.06,308.85,225.82,317.32,228.93Z"/><path class="cls-2" d="M142.18,389.56c-6.08-8.31-10-18.58-11.63-30.63-1.39-10.13-2.07-23.2-2.07-40,0-17,.51-30.1,1.54-40.08.06-.61.14-1.2.22-1.8a441.13,441.13,0,0,1-44.72,6.38,293.88,293.88,0,0,0,33.9,108.14q5.34,9.84,11.32,19.11a45.13,45.13,0,0,1,7-15.9A39.46,39.46,0,0,1,142.18,389.56Z"/><path class="cls-3" d="M518.1,241.51a40.74,40.74,0,0,1,23.43-16.24c5.76-1.57,12.33-2.3,20.71-2.3s15,.75,20.76,2.35l.49.15A296.24,296.24,0,0,0,561.37,165a606.38,606.38,0,0,1-50,69A39.2,39.2,0,0,1,518.1,241.51Z"/><path class="cls-2" d="M137,474.73c-4.95-8.09-7.71-17.69-8.37-29.18A605.05,605.05,0,0,1,44,451.2,294.32,294.32,0,0,0,165.41,561.51a726.54,726.54,0,0,0,90.07-21.17,315.89,315.89,0,0,1-66.34-38.28A92.51,92.51,0,0,1,164.63,497,53.43,53.43,0,0,1,137,474.73Z"/><path class="cls-2" d="M300.29,501.44c-10,1-23.07,1.53-40.05,1.53H225.3a297.83,297.83,0,0,0,59.61,27.73A731.8,731.8,0,0,0,361.25,499a60,60,0,0,1-24.48-12.6C327.63,494.81,315.37,499.88,300.29,501.44Z"/><path class="cls-3" d="M450,548.69A294.66,294.66,0,0,0,507.56,503H482.91A320.72,320.72,0,0,1,450,548.69Z"/><path class="cls-2" d="M285.42,551.32a746.83,746.83,0,0,1-87.25,23.93,295.25,295.25,0,0,0,225.58-12.34A320.18,320.18,0,0,1,285.42,551.32Z"/><path class="cls-4" d="M436.47,534.49A299.37,299.37,0,0,0,460,503H419.39Z"/><path class="cls-2" d="M419.15,543.94l-22.21-41a756.19,756.19,0,0,1-79.54,36.72A300,300,0,0,0,419.15,543.94Z"/><path class="cls-1" d="M411,473q-22.82,0-35.88-1.79t-19.8-8.52q-6.75-6.75-8.53-19.8T345,407v-38.5a37.09,37.09,0,0,1,1.37-11.14,23.8,23.8,0,0,1,3.58-7.15,51.54,51.54,0,0,1,4.67-5.36,41.48,41.48,0,0,0,4.68-5.64,26.86,26.86,0,0,0,3.57-8A45.64,45.64,0,0,0,364.24,319v-38.5q0-8.25.27-13.62a16.18,16.18,0,0,1,2.34-8.38,11.14,11.14,0,0,1,6.6-4.27A51.36,51.36,0,0,1,386.24,253a49.66,49.66,0,0,1,12.64,1.23,11.12,11.12,0,0,1,6.47,4.27,17.15,17.15,0,0,1,2.47,8.38q.42,5.37.41,13.62V396q0,11.28.28,17.87t2.34,9.9a9.66,9.66,0,0,0,6.6,4.26,64.43,64.43,0,0,0,12.78,1,62.4,62.4,0,0,0,12.66-1,9.61,9.61,0,0,0,6.46-4.26q2.06-3.3,2.47-9.9t.42-17.87V280.74q0-8.25.27-13.75t2.34-8.52a11.14,11.14,0,0,1,6.6-4.27A51.36,51.36,0,0,1,474.24,253a49.66,49.66,0,0,1,12.64,1.23,11.12,11.12,0,0,1,6.47,4.27,17,17,0,0,1,2.47,8.38q.42,5.37.42,13.62V396q0,11.28.27,17.87t2.34,9.9a9.66,9.66,0,0,0,6.6,4.26,64.43,64.43,0,0,0,12.78,1,62.4,62.4,0,0,0,12.66-1,9.64,9.64,0,0,0,6.46-4.26q2.05-3.3,2.47-9.9t.42-17.87V280.47q0-8.25.27-13.62a16.18,16.18,0,0,1,2.34-8.38,11.17,11.17,0,0,1,6.6-4.27A51.42,51.42,0,0,1,562.24,253a49.75,49.75,0,0,1,12.65,1.23,11.13,11.13,0,0,1,6.46,4.27,17,17,0,0,1,2.47,8.38q.42,5.37.42,13.62V319a45,45,0,0,0,1.37,12.37,26.87,26.87,0,0,0,3.58,7.84,40.71,40.71,0,0,0,4.67,5.64,52.84,52.84,0,0,1,4.68,5.36,24,24,0,0,1,3.57,7.15,37.05,37.05,0,0,1,1.38,11.14V407q0,22.83-1.79,35.89t-8.53,19.8q-6.74,6.73-19.93,8.52T537.49,473Z"/></g></g></svg>